<svg id="visual" viewBox="0 0 960 540" width="960" height="540" xmlns="http://www.w3.org/2000/svg" xmlns:xlink="http://www.w3.org/1999/xlink" version="1.1"><rect x="0" y="0" width="960" height="540" fill="#000080"></rect><defs><linearGradient id="grad1_0" x1="43.8%" y1="0%" x2="100%" y2="100%"><stop offset="14.444444444444446%" stop-color="#dd006f" stop-opacity="1"></stop><stop offset="85.55555555555554%" stop-color="#dd006f" stop-opacity="1"></stop></linearGradient></defs><defs><linearGradient id="grad1_1" x1="43.8%" y1="0%" x2="100%" y2="100%"><stop offset="14.444444444444446%" stop-color="#dd006f" stop-opacity="1"></stop><stop offset="85.55555555555554%" stop-color="#000080" stop-opacity="1"></stop></linearGradient></defs><defs><linearGradient id="grad2_0" x1="0%" y1="0%" x2="56.3%" y2="100%"><stop offset="14.444444444444446%" stop-color="#dd006f" stop-opacity="1"></stop><stop offset="85.55555555555554%" stop-color="#dd006f" stop-opacity="1"></stop></linearGradient></defs><defs><linearGradient id="grad2_1" x1="0%" y1="0%" x2="56.3%" y2="100%"><stop offset="14.444444444444446%" stop-color="#000080" stop-opacity="1"></stop><stop offset="85.55555555555554%" stop-color="#dd006f" stop-opacity="1"></stop></linearGradient></defs><g transform="translate(960, 0)"><path d="M0 331C-86.9 386.3 -173.8 441.6 -246.5 427C-319.2 412.3 -377.8 327.8 -424.4 245C-470.9 162.2 -505.5 81.1 -540 0L0 0Z" fill="#92007e"></path><path d="M0 165.5C-43.4 193.1 -86.9 220.8 -123.2 213.5C-159.6 206.2 -188.9 163.9 -212.2 122.5C-235.5 81.1 -252.7 40.5 -270 0L0 0Z" fill="#dd006f"></path></g><g transform="translate(0, 540)"><path d="M0 -468C97.7 -487.8 195.4 -507.6 270 -467.7C344.6 -427.7 396.2 -327.9 415.7 -240C435.2 -152.1 422.6 -76 410 0L0 0Z" fill="#92007e"></path><path d="M0 -234C48.8 -243.9 97.7 -253.8 135 -233.8C172.3 -213.8 198.1 -164 207.8 -120C217.6 -76 211.3 -38 205 0L0 0Z" fill="#dd006f"></path></g></svg>